<?xml version="1.0" standalone="no"?>
<!DOCTYPE svg PUBLIC "-//W3C//DTD SVG 20010904//EN"
 "http://www.w3.org/TR/2001/REC-SVG-20010904/DTD/svg10.dtd">
<svg version="1.0" xmlns="http://www.w3.org/2000/svg"
 width="236.000000pt" height="236.000000pt" viewBox="0 0 236.000000 236.000000"
 preserveAspectRatio="xMidYMid meet">
<metadata>
Created by potrace 1.11, written by Peter Selinger 2001-2013
</metadata>
<g transform="translate(0.000000,236.000000) scale(0.100000,-0.100000)"
fill="#000000" stroke="none">
<path d="M1556 2089 c-3 -17 -3 -35 0 -40 3 -5 1 -9 -5 -9 -5 0 -16 -7 -25
-15 -24 -25 -135 -55 -162 -45 -13 5 -24 15 -24 21 0 7 -3 9 -7 5 -4 -4 -13 8
-19 26 l-11 33 -43 -48 c-24 -26 -45 -45 -48 -42 -2 2 -12 -5 -22 -17 -20 -25
-50 -32 -50 -12 0 25 -25 15 -62 -23 -25 -27 -35 -46 -33 -63 1 -14 3 -25 4
-25 2 0 4 -8 6 -17 2 -9 -7 -28 -20 -42 -13 -14 -20 -27 -17 -30 11 -12 -15
-6 -28 7 -12 10 -12 9 -1 -5 14 -19 9 -48 -9 -48 -6 0 -8 5 -4 12 4 7 3 8 -4
4 -6 -4 -24 -1 -39 7 -18 9 -40 11 -60 7 -40 -9 -55 5 -56 55 -1 47 -18 29
-29 -32 -5 -26 -11 -60 -14 -74 -4 -18 0 -34 12 -48 21 -24 39 -28 30 -6 -3 8
-1 15 5 15 6 0 7 5 4 10 -3 6 1 10 9 10 9 0 16 4 16 9 0 5 11 8 25 7 14 0 25
-5 25 -9 0 -5 5 -5 12 -1 8 5 9 0 5 -17 -4 -13 -7 -28 -7 -32 0 -5 -4 -5 -10
-2 -5 3 -7 0 -4 -9 6 -16 -12 -56 -33 -71 -8 -6 -15 -24 -17 -40 -3 -29 -5
-30 -57 -30 -52 0 -54 1 -59 30 -7 41 -15 21 -19 -45 -1 -31 5 -74 13 -99 9
-24 13 -48 9 -54 -3 -5 -1 -7 4 -4 13 8 21 -10 19 -43 -1 -14 -7 -24 -14 -23
-7 2 -12 -4 -12 -12 0 -18 -12 -19 -28 -3 -7 7 -12 8 -12 2 0 -6 16 -28 36
-50 20 -21 34 -31 30 -21 -15 45 -18 67 -8 67 6 0 14 -14 17 -32 4 -18 12 -40
18 -49 6 -9 7 -25 3 -35 -8 -18 -8 -18 -17 1 -6 13 -7 5 -3 -25 3 -25 12 -50
20 -56 19 -16 18 -51 -3 -63 -14 -8 -15 -10 -3 -11 9 0 11 -3 5 -8 -5 -4 -10
-14 -10 -22 0 -8 -4 -14 -10 -13 -5 0 -17 -6 -25 -15 -13 -14 -12 -15 3 -9 18
7 70 -14 93 -38 7 -6 18 -37 25 -68 15 -63 26 -72 36 -27 3 20 12 30 23 30 27
0 76 -61 94 -118 10 -28 24 -53 32 -56 9 -3 12 -1 9 4 -3 6 2 10 12 10 11 0
24 5 30 11 21 21 32 1 20 -36 -7 -23 -13 -31 -18 -23 -14 22 -23 -1 -10 -28 9
-20 9 -30 0 -40 -10 -13 -15 -12 -34 6 -29 27 -38 13 -27 -37 8 -34 6 -41 -14
-56 -12 -9 -25 -17 -27 -17 -7 0 -2 28 6 36 13 13 7 24 -11 24 -23 0 -70 -42
-54 -48 7 -2 10 -8 7 -12 -3 -5 -13 -7 -23 -4 -10 4 -13 3 -6 -3 6 -4 17 -31
24 -60 13 -49 16 -52 50 -58 20 -3 49 -12 63 -20 27 -14 28 -13 67 45 22 33
46 59 53 57 7 -1 11 4 9 11 -2 10 91 60 124 66 7 1 19 8 28 15 9 7 16 10 16 5
0 -4 9 2 20 14 19 21 20 24 5 52 -16 31 -13 62 8 85 13 13 95 4 152 -17 22 -8
58 -18 80 -22 22 -4 49 -15 60 -24 19 -16 19 -16 6 1 -12 15 -11 17 13 17 19
0 25 -4 20 -12 -4 -7 -4 -10 1 -6 4 4 15 2 23 -5 12 -10 12 -6 -1 20 -10 18
-17 41 -17 51 0 13 -14 27 -40 41 -55 29 -63 27 -55 -10 5 -22 4 -29 -4 -25
-6 4 -14 25 -17 47 -4 21 -11 39 -16 39 -5 0 -7 3 -5 7 9 14 -74 13 -101 -1
-26 -13 -74 -9 -73 7 2 27 15 56 24 50 5 -3 7 -2 4 3 -9 15 23 74 40 74 8 0
12 4 9 8 -3 5 6 19 19 30 22 19 25 30 25 90 0 59 3 72 23 90 13 12 26 20 29
16 3 -3 5 1 5 8 -2 24 46 167 54 162 5 -3 6 1 4 9 -3 7 6 26 20 41 30 33 30
33 3 31 -13 -1 -23 -6 -22 -11 1 -5 -12 -17 -28 -26 -29 -18 -52 -59 -63 -112
-4 -21 -9 -26 -17 -18 -9 9 -8 18 0 37 7 15 8 24 3 21 -5 -3 -7 13 -4 37 2 23
4 54 5 69 1 16 5 25 11 21 6 -3 7 -1 3 6 -8 13 10 41 26 41 6 0 8 -7 4 -15 -3
-9 0 -15 9 -15 7 0 15 -7 17 -15 2 -13 9 -11 35 7 27 19 33 30 34 63 2 30 3
33 6 13 6 -38 20 -35 28 5 4 17 14 43 22 57 l16 25 -25 -23 c-13 -12 -29 -19
-34 -15 -5 5 -6 5 -3 0 3 -4 -11 -27 -33 -50 -30 -33 -40 -39 -47 -28 -6 9 -3
26 7 47 13 29 14 39 2 73 -19 60 -24 65 -48 52 -11 -6 -30 -11 -42 -11 -20 0
-22 4 -15 38 3 20 20 61 36 90 17 30 32 67 34 83 2 16 9 46 15 65 10 28 15 33
22 23 8 -11 9 -10 4 4 -6 20 3 49 14 42 9 -6 3 78 -10 124 -5 19 -6 39 -3 44
3 6 1 7 -5 3 -6 -3 -16 7 -24 24 -16 38 -24 38 -32 -1z"/>
<path d="M1240 2069 c0 -5 5 -7 10 -4 6 3 10 8 10 11 0 2 -4 4 -10 4 -5 0 -10
-5 -10 -11z"/>
<path d="M800 1894 c0 -16 39 -92 50 -99 6 -4 8 -15 5 -26 -4 -13 -2 -19 9
-19 12 0 13 6 4 38 -10 36 -68 127 -68 106z"/>
<path d="M1658 1884 c0 -5 -2 -13 -2 -19 -3 -20 -27 -55 -34 -51 -5 3 -9 -9
-10 -25 -2 -28 -11 -45 -59 -120 -13 -19 -23 -44 -23 -57 0 -20 3 -21 21 -12
28 16 62 9 65 -13 4 -31 10 -29 37 10 25 37 26 42 23 161 -2 68 -7 126 -10
129 -3 4 -7 2 -8 -3z"/>
<path d="M1020 1827 c0 -15 4 -27 8 -27 10 0 9 36 -1 46 -4 4 -7 -5 -7 -19z"/>
<path d="M636 1694 c-9 -20 -13 -41 -9 -47 14 -24 86 -97 91 -92 3 2 0 11 -7
19 -9 11 -9 15 1 19 9 4 9 6 -2 6 -22 1 -40 36 -42 81 -2 53 -11 57 -32 14z"/>
<path d="M1645 1530 c-3 -6 1 -7 9 -4 18 7 21 14 7 14 -6 0 -13 -4 -16 -10z"/>
</g>
</svg>
